<?xml version="1.0" encoding="utf-8"?>
<!-- Generator: Adobe Illustrator 24.0.2, SVG Export Plug-In . SVG Version: 6.00 Build 0)  -->
<svg version="1.1" xmlns="http://www.w3.org/2000/svg" xmlns:xlink="http://www.w3.org/1999/xlink" x="0px" y="0px"
	 viewBox="0 0 200 200" style="enable-background:new 0 0 200 200;" xml:space="preserve">
<style type="text/css">
	.st0{display:none;}
	.st1{display:inline;fill:none;stroke:#000000;stroke-width:0.25;stroke-miterlimit:10;}
	.st2{display:inline;fill:none;stroke:#000000;stroke-width:0.5;stroke-miterlimit:10;}
	.st3{fill:#D79414;}
	.st4{fill:#C3832B;}
	.st5{display:none;opacity:0.72;fill:#AD770A;}
	.st6{display:none;fill:#AD770A;}
	.st7{display:none;fill:#D79414;}
	.st8{fill:#03698F;}
	.st9{fill:#050606;}
	.st10{fill:none;}
	.st11{font-family:'MyriadPro-Regular';}
	.st12{font-size:20px;}
	.st13{display:inline;fill:#03698F;stroke:#EE1C4E;stroke-width:0.25;stroke-miterlimit:10;}
</style>
<g id="Layer_1" class="st0">
	<line class="st1" x1="-31" y1="-30.6" x2="205.33" y2="205.74"/>
	<line class="st1" x1="-46.1" y1="-25.87" x2="190.24" y2="210.47"/>
	<line class="st1" x1="-56.1" y1="-15.87" x2="180.24" y2="220.47"/>
	<line class="st1" x1="-66.1" y1="-5.87" x2="170.24" y2="230.47"/>
	<line class="st1" x1="-76.1" y1="4.13" x2="160.24" y2="240.47"/>
	<line class="st1" x1="-86.1" y1="14.13" x2="150.24" y2="250.47"/>
	<line class="st1" x1="-86.1" y1="34.13" x2="150.24" y2="270.47"/>
	<line class="st1" x1="-116.1" y1="24.13" x2="120.24" y2="260.47"/>
	<line class="st1" x1="-116.1" y1="44.13" x2="120.24" y2="280.47"/>
	<line class="st1" x1="-136.1" y1="44.13" x2="100.24" y2="280.47"/>
	<line class="st1" x1="-26.1" y1="-45.87" x2="210.24" y2="190.47"/>
	<line class="st1" x1="-16.1" y1="-55.87" x2="220.24" y2="180.47"/>
	<line class="st1" x1="3.9" y1="-55.87" x2="240.24" y2="180.47"/>
	<line class="st1" x1="3.9" y1="-75.87" x2="240.24" y2="160.47"/>
	<line class="st1" x1="13.9" y1="-85.87" x2="250.24" y2="150.47"/>
	<line class="st1" x1="23.9" y1="-95.87" x2="260.24" y2="140.47"/>
	<line class="st1" x1="33.9" y1="-105.87" x2="270.24" y2="130.47"/>
	<line class="st1" x1="43.9" y1="-115.87" x2="280.24" y2="120.47"/>
	<line class="st1" x1="43.9" y1="-135.87" x2="280.24" y2="100.47"/>
	<line class="st1" x1="175.14" y1="-30.6" x2="-61.2" y2="205.74"/>
	<line class="st1" x1="190.24" y1="-25.87" x2="-46.1" y2="210.47"/>
	<line class="st1" x1="200.24" y1="-15.87" x2="-36.1" y2="220.47"/>
	<line class="st1" x1="210.24" y1="-5.87" x2="-26.1" y2="230.47"/>
	<line class="st1" x1="220.24" y1="4.13" x2="-16.1" y2="240.47"/>
	<line class="st1" x1="230.24" y1="14.13" x2="-6.1" y2="250.47"/>
	<line class="st1" x1="230.24" y1="34.13" x2="-6.1" y2="270.47"/>
	<line class="st1" x1="260.24" y1="24.13" x2="23.9" y2="260.47"/>
	<line class="st1" x1="260.24" y1="44.13" x2="23.9" y2="280.47"/>
	<line class="st1" x1="280.24" y1="44.13" x2="43.9" y2="280.47"/>
	<line class="st1" x1="170.24" y1="-45.87" x2="-66.1" y2="190.47"/>
	<line class="st1" x1="160.24" y1="-55.87" x2="-76.1" y2="180.47"/>
	<line class="st1" x1="140.24" y1="-55.87" x2="-96.1" y2="180.47"/>
	<line class="st1" x1="140.24" y1="-75.87" x2="-96.1" y2="160.47"/>
	<line class="st1" x1="130.24" y1="-85.87" x2="-106.1" y2="150.47"/>
	<line class="st1" x1="120.24" y1="-95.87" x2="-116.1" y2="140.47"/>
	<line class="st1" x1="110.24" y1="-105.87" x2="-126.1" y2="130.47"/>
	<line class="st1" x1="100.24" y1="-115.87" x2="-136.1" y2="120.47"/>
	<line class="st1" x1="100.24" y1="-135.87" x2="-136.1" y2="100.47"/>
</g>
<g id="Layer_2" class="st0">
	<line class="st1" x1="132.07" y1="0" x2="132.07" y2="195.44"/>
	<line class="st1" x1="112.07" y1="0" x2="112.07" y2="195.44"/>
	<line class="st1" x1="92.07" y1="0" x2="92.07" y2="195.44"/>
	<line class="st1" x1="72.07" y1="0" x2="72.07" y2="195.44"/>
	<line class="st1" x1="52.07" y1="0" x2="52.07" y2="195.44"/>
	<line class="st1" x1="32.07" y1="0" x2="32.07" y2="195.44"/>
	<line class="st1" x1="152.07" y1="0" x2="152.07" y2="195.44"/>
	<line class="st1" x1="172.07" y1="0" x2="172.07" y2="195.44"/>
	<line class="st1" x1="192.07" y1="0" x2="192.07" y2="195.44"/>
	<line class="st1" x1="12.07" y1="0" x2="12.07" y2="195.44"/>
</g>
<g id="Layer_3" class="st0">
	<circle class="st2" cx="92.07" cy="92.47" r="40"/>
	<circle class="st2" cx="112.07" cy="92.3" r="20"/>
	<circle class="st2" cx="132.07" cy="92.3" r="40.17"/>
	<circle class="st2" cx="71.9" cy="92.3" r="20"/>
	<circle class="st2" cx="52.12" cy="92.45" r="39.86"/>
	<circle class="st2" cx="51.9" cy="92.64" r="19.66"/>
	<circle class="st2" cx="131.9" cy="92.64" r="19.66"/>
	<circle class="st2" cx="91.9" cy="32.47" r="40.51"/>
	<circle class="st2" cx="92.07" cy="132.47" r="21.15"/>
	<circle class="st2" cx="92.07" cy="52.47" r="19.83"/>
	<circle class="st2" cx="91.9" cy="152.47" r="40.51"/>
</g>
<g id="Layer_4">
	<path class="st3" d="M131.94,121.47c-11.2,15.7-22.4,31.39-33.6,47.09c-1.78,2.48-4.49,4.21-7.53,4.55h-0.08
		c-0.03,0.01-0.06,0.01-0.09,0.01c-0.98,0.1-1.96,0.06-2.92-0.1c-1.82-0.29-3.57-1.02-5.1-2.09c-8.76-6.07-17.52-12.15-26.28-18.23
		c-0.01-0.01-0.02-0.01-0.03-0.02c-1.23-0.85-2.45-1.7-3.68-2.55l4.92,3.3c0.09,0.06,0.18,0.11,0.28,0.18l25.28,16.95
		c1.5,0.43,4.39,1.04,7.96,0.4c3.54-0.63,6.04-2.19,7.29-3.1L131.94,121.47z"/>
	<path class="st3" d="M116.4,89.72c-0.08,2.65-1.41,4.44-4.44,8.15c-2.33,2.85-5.09,6.14-8.27,9.74c-0.27,0.31-0.55,0.62-0.83,0.94
		c0.57-0.69,1.14-1.39,1.71-2.1c3.56-4.5,5.39-6.94,7.21-9.49l0.08-0.12l0.07-0.09c0.98-1.38,1.92-2.74,2.82-4.09
		c0.06-0.13,0.13-0.25,0.18-0.38c0.07-0.16,0.13-0.33,0.18-0.5c0.01-0.03,0.02-0.05,0.02-0.08c0.08-0.19,0.14-0.4,0.19-0.62
		c0.05-0.2,0.09-0.42,0.12-0.63c0.01-0.06,0.01-0.12,0.02-0.18c0.03-0.18,0.05-0.37,0.06-0.53c0.02-0.2,0.03-0.38,0.03-0.51v-0.15
		c0.02-2.7-1.18-5.37-3.49-7.15l-4-3.08v-0.02l-2.21-1.7c-2.02-1.56-4.05-3.13-6.08-4.69c0.11,0.08,0.23,0.16,0.35,0.25
		c3.34,2.43,5.52,3.7,9.76,6.76c3.03,2.19,3.54,2.71,4.02,3.33C114.5,83.54,116.51,86.32,116.4,89.72z"/>
	<path class="st4" d="M29.45,132.86c0.71-2.92,1.42-5.84,2.13-8.76c2.57-1.6,5.14-3.2,7.71-4.8l-6.8-4.94
		c-2.84,1.55-5.67,3.1-8.51,4.66c-0.5,3.11-0.99,6.22-1.49,9.33C24.81,129.85,27.13,131.35,29.45,132.86z"/>
	<path class="st4" d="M55.08,101.53c-2.6,1.51-5.2,3.01-7.81,4.52c-0.81,2.92-1.62,5.84-2.43,8.75l-6.66-5.13
		c0.69-3.16,1.38-6.32,2.07-9.47c2.73-1.27,5.45-2.53,8.18-3.8L55.08,101.53z"/>
	<path class="st4" d="M160.22,83.15l-4.94,6.8c-0.01-0.02-0.02-0.04-0.03-0.06c-1.59-2.55-3.18-5.1-4.77-7.65
		c-2.92-0.71-5.84-1.42-8.76-2.13l4.93-6.8c0.01,0,0.03,0,0.04,0.01c2.96,0.43,5.91,0.88,8.88,1.32c1.52,2.79,3.05,5.57,4.57,8.36
		c0.01,0.03,0.03,0.06,0.04,0.09C160.2,83.11,160.21,83.13,160.22,83.15z"/>
	<path class="st4" d="M123.24,26.93c-0.69,3.16-1.38,6.32-2.07,9.47c-2.72,1.27-5.45,2.54-8.17,3.8l-0.03-0.02
		c-2.21-1.7-4.41-3.4-6.62-5.11c2.6-1.51,5.2-3.01,7.8-4.52c0.81-2.91,1.62-5.83,2.43-8.75l6.6,5.08L123.24,26.93z"/>
	<path class="st5" d="M45.29,88.33c0.23,2.35,0.77,4.65,1.69,6.83c5.36,12.79,23.18,21.28,44.05,18.48
		c-0.98-2.07-3.33-4.5-5.03-5.64c-0.93-0.46-1.85-0.92-2.78-1.38c-15.37,1.18-27.87-4.54-31.82-13.54
		c-1.69-3.85-1.66-7.97-0.9-11.75C47.55,83.3,45.93,85.7,45.29,88.33z"/>
	<path class="st6" d="M121.45,103.26c-2.59-0.05-5.36-0.02-8.35,0.08c-7.43,0.24-13.81,0.81-19.44,1.48
		c2.42,2.94,5.29,4.97,8.46,6.31c1.67-0.07,3.37-0.11,5.15-0.13c4.19-0.03,14.61-0.11,23.11,1.22c0.55-0.08,1.09-0.15,1.63-0.23
		C129.9,107.45,126.08,104.74,121.45,103.26z"/>
	<path class="st7" d="M110.96,31.59c-2.38-3.2-6.77-6.49-11.39-9.3c-0.73,0.77-1.94,1.23-2.39,2.04c4.81,2.81,9.86,6.39,11.08,9.61
		C108.78,32.89,110.02,32.29,110.96,31.59z"/>
	<polygon class="st8" points="60.3,30.3 58.31,28.76 59.85,26.77 	"/>
	<polygon class="st8" points="95.93,77.39 95.82,77.3 95.91,77.19 	"/>
	<path class="st9" d="M114.82,20.39l-0.03,0.04l-6.65-5.13c-2.72,1.26-5.45,2.53-8.17,3.79c-0.69,3.15-1.38,6.31-2.07,9.46
		c2.22,1.71,4.44,3.43,6.66,5.14c0.6,0.46,1.19,0.92,1.79,1.38c2.21,1.71,4.41,3.41,6.62,5.11c-1.37-3.19-0.92-6.87,1.18-9.63
		c2.12-2.77,5.59-4.18,9.03-3.67c0.02,0.01,0.03,0.01,0.05,0.01C120.43,24.72,117.62,22.56,114.82,20.39z M56.84,102.96
		c-0.61-0.47-1.21-0.93-1.81-1.4c-2.19-1.69-4.38-3.37-6.56-5.06c0.09,0.22,2.06,5.22-1.2,9.55c-2.08,2.74-5.46,4.18-8.89,3.77
		h-0.01c-0.06-0.01-0.11-0.01-0.17-0.02c5,3.86,10.01,7.73,15.01,11.59l0.07-0.09c2.73-1.26,5.45-2.53,8.18-3.79
		c0.68-3.13,1.37-6.27,2.04-9.4C61.28,106.39,59.06,104.67,56.84,102.96z M95.91,77.19l-0.09,0.11l0.11,0.09L95.91,77.19z
		 M96.17,69.66c0.79,0.63,1.98,1.58,3.48,2.68C98.49,71.45,97.33,70.55,96.17,69.66z M102.86,108.55c0.28-0.32,0.56-0.63,0.83-0.94
		c0.3-0.38,0.59-0.77,0.88-1.16C104,107.16,103.43,107.86,102.86,108.55z M65.6,67.06c-0.04-0.04-0.07-0.07-0.12-0.1
		c-0.09-0.07-0.19-0.16-0.31-0.26c0-0.01-0.01-0.01-0.01-0.01c-0.12-0.09-0.25-0.2-0.4-0.32c-0.15-0.13-0.32-0.27-0.51-0.41
		c-0.1-0.07-0.19-0.15-0.29-0.23c-0.34-0.27-0.72-0.57-1.16-0.91c-0.21-0.16-0.44-0.34-0.68-0.53c-0.94-0.74-2.07-1.61-3.38-2.61
		c-0.21-0.16-0.41-0.32-0.63-0.49c-0.42-0.33-0.87-0.67-1.33-1.02c-0.47-0.36-0.95-0.72-1.44-1.11c-0.28-0.22-0.57-0.44-0.87-0.67
		c-0.25-0.18-0.5-0.38-0.76-0.58c-0.77-0.59-1.59-1.21-2.44-1.86l0.01,0.09c4.79,3.71,9.61,7.41,14.4,11.11
		C65.66,67.12,65.63,67.09,65.6,67.06z M59.85,26.77l-1.54,1.99l1.99,1.54L59.85,26.77z"/>
	<path d="M112.06,81.93l-4-3.08v-0.02l-2.21-1.7c-2.02-1.56-4.05-3.13-6.08-4.69c-0.04-0.03-0.08-0.06-0.12-0.1
		c-1.5-1.1-2.69-2.05-3.48-2.68c-0.58-0.45-1.15-0.9-1.73-1.34c-9.49-7.33-18.98-14.65-28.48-21.98L79.5,28.8
		c3.86-5,11.04-5.93,16.04-2.07c0.79,0.61,1.57,1.21,2.36,1.82c0.69-3.15,1.38-6.31,2.07-9.46c2.72-1.26,5.45-2.53,8.17-3.79
		l6.65,5.13l0.03-0.04c-3.82-2.95-7.64-5.91-11.47-8.86c-3.07-2.36-6.13-4.73-9.19-7.09c-2.89-2.23-6.4-3.11-9.77-2.74
		c-3.51,0.4-6.86,2.16-9.19,5.17c-2.17,2.81-4.33,5.62-6.5,8.43l-0.1,0.12l-8.75,11.35l0.45,3.53l-1.99-1.54L49.48,40.2l-1.35,1.75
		l-0.01,0.01c-3.1,4.02-2.33,9.8,1.71,12.89c0.49,0.38,0.98,0.75,1.44,1.1c0.85,0.65,1.67,1.27,2.44,1.86
		c0.25,0.2,0.51,0.39,0.76,0.58c0.3,0.23,0.59,0.45,0.87,0.67c0.5,0.38,0.98,0.75,1.44,1.11c0.46,0.35,0.91,0.69,1.33,1.02
		c0.22,0.16,0.43,0.32,0.63,0.49c1.31,1,2.44,1.87,3.38,2.61c0.24,0.18,0.47,0.36,0.68,0.53c0.44,0.34,0.82,0.64,1.16,0.91
		c0.1,0.08,0.2,0.15,0.29,0.23c0.19,0.14,0.36,0.28,0.51,0.41c0.15,0.12,0.28,0.22,0.4,0.32c0,0,0.01,0,0.01,0.01
		c0.12,0.1,0.23,0.18,0.31,0.26c0.05,0.03,0.08,0.06,0.12,0.1c0.07,0.05,0.12,0.1,0.16,0.15c0.02,0.01,0.04,0.03,0.05,0.04
		c0.01,0,0.01,0.02,0.01,0.02c0.01,0,0.01,0,0.01,0c6.14,4.75,12.29,9.49,18.43,14.24c3.81,2.93,7.61,5.86,11.43,8.81
		c-4.35,5.62-8.69,11.25-13.03,16.88c-4.2,5.43-12,6.43-17.43,2.24c-0.58-0.45-1.15-0.89-1.73-1.33c-0.67,3.13-1.36,6.27-2.04,9.4
		c-2.73,1.26-5.45,2.53-8.18,3.79l-0.07,0.09c1.65,1.27,3.29,2.54,4.94,3.81c3.68,2.84,7.36,5.68,11.03,8.51
		c4.93,3.8,11.99,2.89,15.79-2.03c6.28-7.91,12.52-15.93,18.72-24.07c-0.27,0.31-0.55,0.62-0.83,0.94c0.57-0.69,1.14-1.39,1.71-2.1
		c1.34-1.76,2.68-3.53,4.02-5.3c0.67-0.88,1.34-1.77,2-2.66l1.19-1.53l0.08-0.12l0.07-0.09c0.98-1.38,1.92-2.74,2.82-4.09
		c0.06-0.13,0.13-0.25,0.18-0.38c0.07-0.16,0.13-0.33,0.18-0.5c0.01-0.03,0.02-0.05,0.02-0.08c0.14-0.41,0.24-0.83,0.31-1.25
		c0.01-0.06,0.01-0.12,0.02-0.18c0.03-0.18,0.05-0.36,0.06-0.53c0.02-0.17,0.03-0.33,0.03-0.51v-0.15
		C115.57,86.38,114.37,83.71,112.06,81.93z M95.82,77.3l0.09-0.11l0.02,0.2L95.82,77.3z"/>
	<path d="M65.76,67.21c-0.02-0.02-0.05-0.04-0.08-0.06c-0.02-0.03-0.05-0.06-0.08-0.09C65.67,67.11,65.72,67.16,65.76,67.21z"/>
	<path class="st9" d="M51.28,56.04c-1.18-0.91-2.36-1.82-3.53-2.73c-0.69-0.53-1.24-1.17-1.65-1.88c-0.58-0.96-0.89-2.05-0.92-3.16
		c-0.06-1.49,0.39-3,1.37-4.27c0.52-0.68,1.04-1.36,1.57-2.04c-3.1,4.02-2.33,9.8,1.71,12.89c0.49,0.38,0.98,0.75,1.44,1.1
		L51.28,56.04z"/>
	<path class="st9" d="M114.75,92.66c-0.28,0.64-0.63,1.26-1.07,1.83l-1.75,2.26C112.91,95.37,113.85,94.01,114.75,92.66z"/>
	<path class="st9" d="M160.29,82.94l-0.11,0.15l-4.93,6.8l-6.67,9.19l-3.13,4.32l-3.21,4.43c-0.01,0.02-0.03,0.03-0.04,0.04
		l-5.58,7.71c-0.12-0.09-1.66,1.85-4.62,5.82c-0.02,0.02-0.04,0.05-0.06,0.07c-3.95,5.3-10.42,14.18-19.39,26.63
		c-2.2,3.05-4.54,6.32-7.04,9.79c-2.26,3.14-4.64,6.47-7.15,9.97c-3.5,4.89-10.28,6.09-15.25,2.7c-2.28-1.56-4.42-3.01-6.42-4.37
		c-3.29-2.24-6.2-4.19-8.71-5.87c-0.01-0.01-0.02-0.02-0.02-0.02c-4.83-3.24-8.21-5.48-10.13-6.69c-0.1-0.07-0.19-0.12-0.28-0.18
		c-0.53-0.33-0.93-0.58-1.21-0.73c-0.01-0.01-0.02-0.01-0.03-0.02c-0.22-0.12-0.35-0.18-0.38-0.17c-0.01,0.01-0.01,0.01-0.01,0.01
		c-1.1-0.8-2.19-1.59-3.29-2.39c-4.94-3.59-9.89-7.17-14.83-10.76c-2.31-1.67-4.62-3.34-6.92-5.02c-0.95-0.68-1.9-1.37-2.85-2.06
		c-1.57-1.15-3.16-2.29-4.73-3.43c-0.02-0.01-0.03-0.02-0.05-0.03c0.84-0.11,5.25-0.74,8.33-4.73c2.79-3.62,2.62-7.56,2.54-8.55
		v-0.03c0.18,0.14,0.36,0.28,0.54,0.41c1.48,1.16,2.98,2.31,4.49,3.46c0.68,0.51,1.36,1.03,2.05,1.55c2.95,2.23,5.95,4.46,8.99,6.67
		c1.16,0.85,2.32,1.69,3.48,2.52c0.01,0.01,0.04,0.03,0.06,0.04v0.01c1.03,0.73,2.05,1.5,3.07,2.24c2.92,2.11,5.83,4.21,8.74,6.32
		c4.74,3.43,9.48,6.87,14.21,10.3c4.29,3.11,10.29,2.16,13.4-2.13l19.42-26.78c0.03-0.05,0.05-0.08,0.08-0.13l0.53-0.71
		c7.38-10.19,14.77-20.37,22.15-30.55c1.58-2.19,3.17-4.37,4.76-6.56c2.2-3.04,4.4-6.07,6.6-9.11c0,0.03-0.01,0.12,0,0.25
		c0,1.16,0.33,5.76,4.38,8.52c3.91,2.67,8.15,1.46,9.07,1.16C160.21,82.97,160.26,82.95,160.29,82.94z"/>
	<path class="st6" d="M58.2,106.85c-5.1-3.93-10.2-7.87-15.3-11.81l13.6-17.61C51.62,86.7,51.83,100.41,58.2,106.85z"/>
	<path class="st3" d="M114.79,20.43c-2.6,1.5-5.2,3.01-7.8,4.51c-0.81,2.92-1.62,5.83-2.43,8.75v0.01l-6.66-5.13
		c0-0.01,0-0.01,0-0.02c0.69-3.15,1.38-6.31,2.07-9.46c2.72-1.26,5.45-2.53,8.17-3.79L114.79,20.43z"/>
	<path class="st3" d="M63.52,108.03c-0.01,0.03-0.01,0.05-0.02,0.08c-0.67,3.13-1.36,6.27-2.04,9.4c-2.73,1.26-5.45,2.53-8.18,3.79
		l-6.65-5.13c2.6-1.5,5.2-3.01,7.81-4.51c0.8-2.9,1.6-5.8,2.4-8.7c0.01-0.02,0.01-0.04,0.02-0.06L63.52,108.03z"/>
	<path class="st3" d="M30.85,134.37c2.6-1.51,5.2-3.01,7.81-4.52c0.81-2.92,1.62-5.84,2.43-8.75l6.66,5.13
		c-0.69,3.16-1.38,6.32-2.07,9.47c-2.73,1.27-5.45,2.53-8.18,3.8L30.85,134.37z"/>
	<path class="st3" d="M65.81,67.25c0.01,0,0.01,0.02,0.01,0.02c-0.2,0-5.69-3.98-16.5-11.93c-1.43-1.06-2.52-2.41-3.22-3.91
		c-0.48-1-0.79-2.07-0.92-3.16c-0.36-2.78,0.4-5.69,2.36-8c7.03-8.29,14.04-16.57,21.06-24.85l-8.75,11.35l-1.54,1.99L49.48,40.2
		l-1.35,1.75l-0.01,0.01c-3.1,4.02-2.33,9.8,1.71,12.89c0.49,0.38,0.98,0.75,1.44,1.1c0.85,0.65,1.67,1.27,2.44,1.86
		c0.26,0.2,0.51,0.4,0.76,0.58c0.3,0.23,0.59,0.45,0.87,0.67c0.49,0.39,0.97,0.75,1.44,1.11c0.46,0.35,0.91,0.69,1.33,1.02
		c0.22,0.17,0.42,0.33,0.63,0.49c1.31,1,2.44,1.87,3.38,2.61c0.24,0.19,0.47,0.37,0.68,0.53c0.44,0.34,0.82,0.64,1.16,0.91
		c0.1,0.08,0.19,0.16,0.29,0.23c0.19,0.14,0.36,0.28,0.51,0.41c0.15,0.12,0.28,0.23,0.4,0.32c0,0,0.01,0,0.01,0.01
		c0.12,0.1,0.22,0.19,0.31,0.26c0.05,0.03,0.08,0.06,0.12,0.1c0.07,0.05,0.12,0.1,0.16,0.15C65.78,67.22,65.8,67.24,65.81,67.25z"/>
	<path class="st7" d="M177.74,109.72c7.42,4.88,14.84,9.76,22.26,14.64c-8.22,9.71-16.45,19.41-24.67,29.12l22.07-28.59
		C190.84,119.83,184.29,114.77,177.74,109.72z"/>
	<path class="st5" d="M98.96,22.14c-5.8-2.92-10.8-4.63-14.47-5.67c-6.21-1.76-14.72-3.34-14.72-3.34l0,0c0,0,8.01,1.95,17.93,6.31
		c4.13,1.81,7.37,3.62,9.49,4.88C97.77,23.59,98.37,22.87,98.96,22.14z"/>
	<path class="st5" d="M91.03,113.64c3.62-0.49,7.33-1.3,11.08-2.5c-3.17-1.35-6.04-3.38-8.46-6.31c-3.58,0.96-7.07,1.54-10.44,1.8
		c0.93,0.46,1.85,0.92,2.78,1.38C87.71,109.14,90.06,111.57,91.03,113.64z"/>
	<path class="st5" d="M110.35,30.82c-0.79,0.92-1.57,1.85-2.36,2.77c0.22,0.28,0.51,0.75,0.51,1.33
		c0.05,5.85-29.38,3.77-47.09,18.73c-9.32,7.87-17.32,22.09-16.11,34.69c0.64-2.62,2.25-5.03,5.21-7c1.35-6.66,5.01-12.25,5.76-13.4
		c9.09-13.89,26.8-19.39,34.3-21.72c11.21-3.48,21.06-4.07,22.16-9.16C113.22,34.71,111.68,32.38,110.35,30.82z"/>
	<path class="st6" d="M64.21,153.47c11.48-1.08,21.52-3.17,30.25-5.74c-16.51,3.73-30.27,5.7-30.26,5.74
		C64.2,153.48,64.21,153.47,64.21,153.47z"/>
	<path class="st5" d="M146.78,111.68c-4.56-6.02-12.63-8.18-25.33-8.41c4.63,1.47,8.45,4.18,10.55,8.74
		c-0.54,0.08-1.08,0.15-1.63,0.23c6.35,0.99,11.63,2.76,12.38,5.93c1.31,5.52-11.66,12.99-18.54,16.95
		c-7.26,4.18-17.11,8.91-29.75,12.62c24.38-5.5,54.76-14.84,55.71-27.45C150.45,116.53,148.06,113.38,146.78,111.68z"/>
	<rect x="33.22" y="176.88" class="st10" width="125.48" height="18.92"/>
	<text transform="matrix(1 0 0 1 42.5726 191.0834)"><tspan x="0" y="0" class="st11 st12">s</tspan><tspan x="12.88" y="0" class="st4 st11 st12">u</tspan><tspan x="28.86" y="0" class="st11 st12">n</tspan><tspan x="44.92" y="0" class="st4 st11 st12">l</tspan><tspan x="54.6" y="0" class="st11 st12">e</tspan><tspan x="69.58" y="0" class="st4 st11 st12">a</tspan><tspan x="84.18" y="0" class="st11 st12">r</tspan><tspan x="95.68" y="0" class="st4 st11 st12">n</tspan></text>
	<path class="st3" d="M153.61,92.08c-1.67,2.33-3.35,4.67-5.03,7c-3.19-0.8-6.38-1.6-9.57-2.41c-1.23-2.64-2.45-5.28-3.68-7.93
		c-0.04-0.08-0.08-0.17-0.12-0.25l4.88-6.31l0.25-0.33c1.51,2.6,3.01,5.2,4.52,7.8C147.78,90.46,150.69,91.27,153.61,92.08z"/>
</g>
<g id="Layer_5" class="st0">
	<polygon class="st13" points="5.63,154.01 8.54,151.1 8.54,156.92 	"/>
	
		<rect x="28.86" y="167.79" transform="matrix(0.7071 -0.7071 0.7071 0.7071 -115.0125 74.1833)" class="st13" width="6.36" height="16.26"/>
	<polygon class="st13" points="38.54,160.92 38.54,177.92 28.54,167.92 34.04,162.42 35.54,163.92 	"/>
	<polygon class="st13" points="70.04,149.42 60.04,159.42 58.54,157.92 58.54,137.92 	"/>
	<polygon class="st13" points="58.54,157.92 60.04,159.42 58.54,160.92 	"/>
	<polygon class="st13" points="38.54,117.92 38.54,118.09 34.13,122.51 25.54,113.92 24.04,112.42 28.54,107.92 	"/>
	<polygon class="st13" points="34.13,122.51 38.54,118.09 38.54,126.92 35.63,124.01 	"/>
	<polygon class="st13" points="38.54,100.92 35.45,104.01 38.54,107.1 38.54,117.92 28.54,107.92 38.54,97.92 	"/>
	<polygon class="st13" points="38.63,118.01 38.54,118.09 38.54,117.92 	"/>
	
		<rect x="18.86" y="99.91" transform="matrix(0.7071 -0.7071 0.7071 0.7071 -68.444 46.6097)" class="st13" width="6.36" height="12.02"/>
	<polygon class="st13" points="50.04,89.42 40.04,99.42 38.54,97.92 38.54,80.92 40.04,79.42 	"/>
	<polygon class="st13" points="38.54,97.92 40.04,99.42 38.54,100.92 	"/>
	<polygon class="st13" points="68.63,88.01 64.13,92.51 58.54,86.92 58.54,77.92 	"/>
	<polygon class="st13" points="80.04,99.42 75.54,103.92 74.04,102.42 65.63,94.01 65.54,93.92 64.13,92.51 68.63,88.01 
		78.54,97.92 	"/>
	<polygon class="st13" points="78.54,86.92 78.54,97.92 68.63,88.01 74.13,82.51 75.63,84.01 	"/>
	<polygon class="st13" points="58.54,157.92 58.54,160.92 50.04,169.42 40.04,159.42 50.04,149.42 	"/>
	<polygon class="st13" points="48.54,127.92 44.04,132.42 38.54,126.92 38.54,118.09 38.63,118.01 	"/>
	<polygon class="st13" points="18.54,97.92 8.54,107.92 8.54,87.92 	"/>
	
		<rect x="13.2" y="145.02" transform="matrix(0.7071 -0.7071 0.7071 0.7071 -101.7469 56.2993)" class="st13" width="7.78" height="11.89"/>
	<polygon class="st13" points="18.54,157.92 14.04,162.42 8.54,156.92 8.54,151.1 10.13,149.51 	"/>
	
		<rect x="18.11" y="158.1" transform="matrix(0.7071 -0.7071 0.7071 0.7071 -110.5597 63.4333)" class="st13" width="6.36" height="14.14"/>
	
		<rect x="22.4" y="153.1" transform="matrix(0.7071 -0.7071 0.7071 0.7071 -105.5597 65.5043)" class="st13" width="7.78" height="14.14"/>
	<polygon class="st13" points="8.54,107.92 8.54,127.92 -11.46,107.92 -1.46,97.92 	"/>
	<polygon class="st13" points="50.04,169.42 40.04,179.42 38.54,177.92 38.54,160.92 40.04,159.42 	"/>
	<polygon class="st13" points="38.54,137.92 38.54,157.92 28.54,147.92 18.63,138.01 8.54,127.92 8.54,107.92 18.54,117.92 
		28.63,128.01 	"/>
	<polygon class="st13" points="8.54,87.92 8.54,107.92 -1.46,97.92 	"/>
	<polygon class="st13" points="58.54,127.1 58.54,137.92 48.54,127.92 53.95,122.51 55.45,124.01 	"/>
	
		<rect x="11.47" y="80.85" transform="matrix(0.7071 -0.7071 0.7071 0.7071 -56.7412 38.8627)" class="st13" width="14.14" height="14.14"/>
	<polygon class="st13" points="58.54,137.92 58.54,157.92 50.04,149.42 55.54,143.92 44.04,132.42 48.54,127.92 	"/>
	<polygon class="st13" points="75.45,144.01 70.04,149.42 58.54,137.92 58.54,127.1 65.45,134.01 65.54,134.1 	"/>
	
		<rect x="41.47" y="50.85" transform="matrix(0.7071 -0.7071 0.7071 0.7071 -26.7412 51.2891)" class="st13" width="14.14" height="14.14"/>
	<polygon class="st13" points="48.54,67.92 38.54,77.92 38.54,57.92 	"/>
	<polygon class="st13" points="38.54,57.92 38.54,77.92 28.54,67.92 	"/>
	<polygon class="st13" points="38.54,80.92 38.54,97.92 30.04,89.42 	"/>
	<polygon class="st13" points="58.54,77.92 58.54,86.92 55.54,83.92 50.04,89.42 40.04,79.42 50.04,69.42 	"/>
	<polygon class="st13" points="58.54,37.92 58.54,57.92 48.54,47.92 	"/>
	<polygon class="st13" points="68.54,47.92 58.54,57.92 58.54,37.92 	"/>
	<polygon class="st13" points="58.54,66.92 58.54,77.92 50.04,69.42 55.54,63.92 	"/>
	<polygon class="st13" points="74.13,82.51 68.63,88.01 58.54,77.92 58.54,66.92 65.54,73.92 	"/>
	<polygon class="st13" points="85.54,93.92 80.04,99.42 78.54,97.92 78.54,86.92 	"/>
	<polygon class="st13" points="101.45,141.01 81.54,160.92 78.54,157.92 78.54,143.92 81.54,140.92 51.54,110.92 51.54,91.09 
		51.63,91.01 58.54,97.92 58.63,98.01 61.54,100.92 81.54,120.92 81.45,121.01 91.45,131.01 91.54,131.1 98.45,138.01 98.54,138.1 	
		"/>
	<polygon class="st13" points="78.54,143.92 78.54,157.92 71.54,150.92 	"/>
	
		<rect x="64.47" y="153.85" transform="matrix(0.7071 -0.7071 0.7071 0.7071 -92.8367 97.7206)" class="st13" width="14.14" height="14.14"/>
	<polygon class="st13" points="71.54,170.92 61.54,180.92 58.54,177.92 58.54,163.92 61.54,160.92 	"/>
	<polygon class="st13" points="58.54,163.92 58.54,177.92 51.54,170.92 	"/>
	
		<rect x="44.47" y="173.85" transform="matrix(0.7071 -0.7071 0.7071 0.7071 -112.8367 89.4363)" class="st13" width="14.14" height="14.14"/>
	<polygon class="st13" points="51.54,190.92 41.54,200.92 38.54,197.92 38.54,183.92 41.54,180.92 	"/>
	<polygon class="st13" points="38.54,183.92 38.54,197.92 31.54,190.92 	"/>
	
		<rect x="24.47" y="193.85" transform="matrix(0.7071 -0.7071 0.7071 0.7071 -132.8367 81.1521)" class="st13" width="14.14" height="14.14"/>
	
		<rect x="21.47" y="70.85" transform="matrix(0.7071 -0.7071 0.7071 0.7071 -46.7412 43.0049)" class="st13" width="14.14" height="14.14"/>
	<polygon class="st13" points="53.95,122.51 48.54,127.92 38.63,118.01 44.04,112.6 44.05,112.6 45.54,114.09 	"/>
	<polygon class="st13" points="44.04,112.6 38.63,118.01 38.54,117.92 38.54,107.1 	"/>
	<polygon class="st13" points="38.54,97.92 28.54,107.92 20.04,99.42 25.45,94.01 25.54,94.09 25.54,93.92 30.04,89.42 	"/>
</g>
</svg>
